<svg id="Logo_Icon" data-name="Logo Icon" xmlns="http://www.w3.org/2000/svg" width="70.276" height="50" viewBox="0 0 70.276 50">
  <g id="Group_3" data-name="Group 3" transform="translate(0 0)">
    <path id="Union_1" data-name="Union 1" d="M25.783,48.87V36.892a1.131,1.131,0,0,1,.572-.985l17.567-9.922a1.136,1.136,0,0,0,0-1.972L26.354,14.093a1.133,1.133,0,0,1-.572-.985V1.13a1.116,1.116,0,0,1,1.66-.985L69.7,24.014a1.136,1.136,0,0,1,0,1.972L27.443,49.855A1.1,1.1,0,0,1,26.9,50,1.124,1.124,0,0,1,25.783,48.87ZM0,48.87V1.13A1.116,1.116,0,0,1,1.661.145l23.55,13.3a1.132,1.132,0,0,1,.572.985V35.567a1.131,1.131,0,0,1-.572.985l-23.55,13.3A1.1,1.1,0,0,1,1.118,50,1.124,1.124,0,0,1,0,48.87Z" transform="translate(0 0)" fill="#32f0fa"/>
  </g>
</svg>
